<svg xmlns="http://www.w3.org/2000/svg" width="16" height="16" fill="black" class="bi bi-caret-down-fill" viewBox="0 0 16 16">
<path d="M9.60059 2.28613H11.707V2.27051L12.7734 2.26562V2.28613H16V13.7148H12.8223V13.7266L11.7559 13.7314V13.7148H9.60059V16L0 14V2L9.60059 0V2.28613ZM1 2.8125V13.1865L8.60059 14.7705V13.7148H8.5332V2.28613H8.60059V1.22852L1 2.8125ZM12.7881 5.71387H14.9336V6.85742H12.793L12.8027 9.14258H14.9336V10.2861H12.8076L12.8184 12.7148H15V3.28613H12.7773L12.7881 5.71387ZM9.60059 12.7148H11.752L11.7412 10.2861H9.60059V12.7148ZM5.22949 8.41016L6.79492 11.5312L5.66504 11.4805L4.66016 9.50195L3.76758 11.2148H2.55273L3.87598 8.9248L4.12598 8.44922L2.62402 5.49023L3.7627 5.44727L4.70215 7.35547L5.87695 5.12695H6.94336L5.22949 8.41016ZM9.60059 9.14258H11.7363L11.7266 6.85742H9.60059V9.14258ZM9.60059 5.71387H11.7217L11.7109 3.28613H9.60059V5.71387Z"/>
</svg>
