<svg version="1.0" xmlns="http://www.w3.org/2000/svg" width="16" height="16" viewBox="0 0 30.000000 30.000000" fill="black">

<g transform="translate(0.000000,30.000000) scale(0.100000,-0.100000)"  stroke="none">
<path d="M102 267 c-30 -32 -28 -71 4 -96 34 -26 54 -26 88 0 33 26 34 68 3
97 -30 28 -68 28 -95 -1z"/>
<path d="M56 118 c-8 -13 -17 -42 -21 -65 l-7 -43 122 0 122 0 -7 43 c-7 45
-29 87 -45 87 -15 0 -12 -16 10 -57 19 -37 19 -54 -3 -52 -9 0 -9 2 0 5 12 5
8 29 -10 52 -8 10 -15 8 -33 -9 -20 -18 -22 -25 -11 -37 10 -12 9 -14 -2 -11
-25 9 -24 27 3 54 26 26 34 55 16 55 -6 0 -16 -11 -22 -25 -14 -31 -22 -31
-36 0 -6 14 -16 25 -22 25 -14 0 -13 -63 2 -78 9 -9 9 -15 1 -23 -20 -20 -30
0 -25 51 5 55 -8 66 -32 28z"/>
</g>
</svg>
